<?xml version="1.0" encoding="UTF-8"?><svg xmlns="http://www.w3.org/2000/svg" viewBox="0 0 258.99 96.44"><defs><style>.e{fill:#040000;}.f{fill:#231815;}</style></defs><g id="a"/><g id="b"><g id="c"><g><g><path class="f" d="M122.63,63.98v-28.54c0-5.87,.51-6.67,3.48-7.24l3.55-.65v-1.45h-24.7v1.45l2.1,.58c2.9,.8,3.48,1.45,3.48,7.32v30.2c0,5.87-.58,6.52-3.48,7.32l-2.1,.58v1.45h18l-.33-11.01Z"/><path class="f" d="M122.92,74.99h18.86v-11.08c0,6.7-18.86,11.08-18.86,11.08Z"/></g><path class="f" d="M247.33,69.63c0-3.11,2.32-5.87,6.01-5.87,3.4,0,5.65,2.1,5.65,5.29s-2.53,5.94-6.23,5.94c-3.4,0-5.43-2.17-5.43-5.36Z"/><g><path class="f" d="M145.88,74.99h15.88l.17-1.26s-8.35-3.25-9.2-10.08c-.09-.68-.73-5.33-.94-4.68l-5.91,16.02Z"/><path class="f" d="M175.55,65.65c1.88,5.79,1.52,6.81-1.01,7.32l-2.82,.58v1.45h22.09v-1.45l-1.3-.58c-1.59-.72-2.32-1.81-4.27-7.32l-14.63-40.49h-9.27l11.23,40.49Z"/><rect class="f" x="151.65" y="58.76" width="25.34" height="1.71"/></g><g><path class="f" d="M215.57,26.1h-17.67v1.45l2.1,.58c2.9,.8,3.48,1.45,3.48,7.32v30.2c0,5.87-.58,6.52-3.48,7.32l-2.1,.58v1.45h17.67V26.1Z"/><path class="f" d="M229.48,48.05v-.29c4.06-.8,11.23-4.27,11.23-11.15,0-8.91-8.84-10.5-16.8-10.5h-5.33v2.97h.19c6.59,0,9.71,2.68,9.71,9.05,0,6.81-4.85,9.13-9.71,9.13h-.19v3.19h.04c6.01,0,11.3,1.96,11.3,10.72,0,8.11-5.36,10.72-10.07,10.72h-.36c-.33,0-.63,0-.91-.03v3.14h6.35c13.69,0,18.32-8.33,18.32-14.78,0-7.89-6.45-12.17-13.76-12.17Z"/></g><g><path class="f" d="M131.7,92.11l.8-4.5c.11-.59-.14-.67-.63-.56v-.02c.53-.35,1.59-.63,2.31-.63,.86,0,1.18,.33,1,1.34l-.6,3.41c-.33,1.9-.39,3.01,.27,3.26h0c-.39,.09-.76,.12-1.12,.12-1.28,0-2.37-.51-2.02-2.43Zm1.5-6.31c.3-.53,.45-1.68,0-2.25,.36-.67,1.06-1.04,1.68-1.04,.57,0,1.25,.3,1.25,1.15,0,1.18-1.36,2.22-2.92,2.16h-.02Z"/><path class="f" d="M140.99,92.47c-.21-1.19-.33-2.02-.94-2.02h0c1.03-.36,2.39-1.43,2.39-2.72,0-.44-.17-.67-.44-.67-.83,0-1.8,1.89-2.36,4.14-.26,1.04-.68,2.96-.17,3.22h0c-.53,.09-.95,.14-1.31,.14-1.19,0-1.71-.51-1.4-2.37l1.39-8.47c.09-.59-.14-.66-.63-.56v-.02c.53-.35,1.59-.63,2.31-.63,.88,0,1.16,.33,1,1.34l-1.24,7.31h.03c1.01-3.85,2.36-4.79,3.75-4.79,1.16,0,1.71,.65,1.71,1.45,0,1.53-1.53,2.08-4.89,2.6v.02c.8-.09,1.44-.11,1.93-.03,1.31,.2,1.65,1.33,1.95,2.36,.27,.92,.44,1.51,1.03,1.66h0c-.56,.12-1.18,.23-1.77,.23-1.24,0-2.01-.39-2.33-2.18Z"/><path class="f" d="M146.4,91.29c0-2.63,2.02-4.92,4.91-4.92,1.96,0,2.96,.66,2.96,1.65,0,1.34-1.84,2.16-4.85,1.62v-.03c1.68,.21,2.61-1.18,2.61-2.19,0-.5-.23-1.01-.73-1.01-1.3,0-2.11,2.14-2.11,3.81s.74,2.69,2.17,2.69c.8,0,1.78-.33,2.49-1.3h.02c-1.03,1.9-2.67,2.96-4.41,2.96s-3.07-1.16-3.07-3.26Z"/><path class="f" d="M155.84,91.05l1.16-7.34c.09-.59-.14-.66-.63-.56v-.02c.53-.35,1.59-.63,2.31-.63,.86,0,1.19,.33,1.03,1.34l-1.4,8.57c-.15,.95-.17,2.12,.65,2.12,1.47,0,2.46-4.12,2.46-6.24,0-.74-.12-1.31-.6-1.31-.76,0-1.66,2.12-2.15,4.18h-.03c.92-3.76,2.01-4.77,3.37-4.77,1.6,0,2.15,1.42,2.15,2.78,0,2.84-2.43,5.39-5.2,5.39-2.19,0-3.44-1.45-3.11-3.5Z"/><path class="f" d="M165.6,91.92l.71-4.32c.09-.59-.14-.67-.63-.56v-.02c.53-.35,1.59-.63,2.31-.63s1.06,.23,1.06,.85c0,.88-.91,4.96-.92,6,0,.44,.17,.62,.45,.62,.83,0,1.74-1.89,2.3-4.14,.26-1.04,.68-2.96,.17-3.22v-.02c.53-.08,.95-.12,1.31-.12,1.19,0,1.75,.48,1.41,2.37l-.44,2.4c-.24,1.3-.36,3.02,.3,3.28h0c-.39,.09-.75,.12-1.12,.12-1.25,0-2.37-.53-2.01-2.43l.44-2.34h-.03c-1.01,3.85-2.24,4.79-3.6,4.79-1.89,0-1.87-1.59-1.71-2.63Z"/><path class="f" d="M179.77,92.47c-.21-1.19-.33-2.02-.94-2.02h0c1.03-.36,2.39-1.43,2.39-2.72,0-.44-.17-.67-.44-.67-.83,0-1.8,1.89-2.36,4.14-.26,1.04-.68,2.96-.17,3.22h0c-.53,.09-.95,.14-1.31,.14-1.19,0-1.71-.51-1.4-2.37l1.39-8.47c.09-.59-.14-.66-.63-.56v-.02c.53-.35,1.59-.63,2.31-.63,.88,0,1.16,.33,1,1.34l-1.24,7.31h.03c1.01-3.85,2.36-4.79,3.75-4.79,1.16,0,1.71,.65,1.71,1.45,0,1.53-1.53,2.08-4.89,2.6v.02c.8-.09,1.44-.11,1.93-.03,1.31,.2,1.65,1.33,1.95,2.36,.27,.92,.44,1.51,1.03,1.66h0c-.56,.12-1.18,.23-1.77,.23-1.24,0-2.01-.39-2.33-2.18Z"/><path class="f" d="M185.48,91.92l.71-4.32c.09-.59-.14-.67-.63-.56v-.02c.53-.35,1.59-.63,2.31-.63s1.06,.23,1.06,.85c0,.88-.91,4.96-.92,6,0,.44,.17,.62,.45,.62,.83,0,1.74-1.89,2.3-4.14,.26-1.04,.68-2.96,.17-3.22v-.02c.53-.08,.95-.12,1.31-.12,1.19,0,1.75,.48,1.41,2.37l-.44,2.4c-.24,1.3-.36,3.02,.3,3.28h0c-.39,.09-.75,.12-1.12,.12-1.25,0-2.37-.53-2.01-2.43l.44-2.34h-.03c-1.01,3.85-2.24,4.79-3.6,4.79-1.89,0-1.87-1.59-1.71-2.63Z"/><path class="f" d="M195.37,92.18l.82-4.58c.11-.59-.14-.67-.63-.56v-.02c.53-.35,1.59-.63,2.31-.63,.86,0,1.19,.33,1,1.34l-.66,3.41h.03c1.01-3.84,1.98-4.85,3.46-4.85,1.38,0,1.9,.97,1.9,1.83,0,1.15-.79,1.99-1.87,1.99-.86,0-1.48-.53-1.46-1.4,.59-.08,1.04-.53,1.04-1.15,0-.5-.26-.75-.6-.75-.94,0-1.78,1.77-2.43,4.38-.26,1.04-.68,2.96-.17,3.22h0c-.53,.09-.95,.14-1.31,.14-1.19,0-1.74-.51-1.41-2.37Z"/><path class="f" d="M212.88,89.79c0,2.51-2.25,4.76-4.96,4.76-2.16,0-3.66-1.42-3.66-3.41,0-2.63,2.24-4.77,4.94-4.77,2.18,0,3.67,1.42,3.67,3.43Zm-2.75-1.63c0-1.06-.21-1.77-.92-1.77-1.66,0-2.19,4.92-2.19,6.39,0,1.04,.24,1.74,.91,1.74,1.68,0,2.21-4.74,2.21-6.36Z"/></g><path id="d" class="f" d="M60.57,48.39c-3.89-1-6.53-.18-8.49,2.36-.01-.25-.03-.51-.07-.77-1.14-7.2-6.64-8.68-13.18-8.35,1.17,5.68,4.19,7.44,7.74,11.41,.82,.91,1.29,1.78,2.16,2.6-.55-4.33-1.4-7.36-4.76-10.17,6.37,2.14,5.17,8.22,5.31,14.33,0,0,1.94-.09,2.25,.04,.32-1.22-.12-5.42,.21-6.53,.91-1.15,1.99-2.1,3.35-2.9-1.34,1.6-2.33,3.45-3.53,5.14,.84-.1,1.76-.35,2.43-.73,2.73-1.56,5.26-3.57,6.59-6.42Z"/><path class="e" d="M48.22,2.86c25.05,0,45.35,20.31,45.35,45.35s-20.31,45.35-45.35,45.35S2.86,73.27,2.86,48.22,23.17,2.86,48.22,2.86m0-2.86C21.63,0,0,21.63,0,48.22s21.63,48.22,48.22,48.22,48.22-21.63,48.22-48.22S74.8,0,48.22,0h0Z"/><path class="e" d="M87.32,33.54c-3.87,3.6-7.79,6.44-10.07,7.13-5.99,1.82-9.16-1.5-12.67-4.3-2.39-1.91-3.54,2.43-4.03,5.39,9.45,4.28,18.2,5.87,18.2,10.98,0,6.2-7.09,29.85-25.69,7.98-8.66-10.18-14.48,13.3-25.42-7.39-2.2-4.16,7.38-14.75,17.4-16.41-1.37-3.06-.82-7.65-.55-12.62,.4-7.38,20.8-3.03,26.84-.59,1.87,.75,5.1-.84,7.55-3.83-7.63-8.25-18.54-13.42-30.67-13.42-3.78,0-7.43,.51-10.91,1.45,4.44,8.5,7.63,16.5,.38,16.82-9.96,.43-16.03-1.52-15.81,3.03,.22,4.55,5.19,8.45,0,9.1-2.33,.29-7.75-1.03-13.02-2.57-1.54,4.36-2.39,9.05-2.39,13.94,0,14.21,7.11,26.76,17.96,34.31,2.39-5.6,7.94-9.52,14.41-9.52,8.65,0,15.66,7.01,15.66,15.66,0,.29-.03,.57-.04,.86,20.12-3,35.55-20.35,35.55-41.3,0-5.17-.94-10.11-2.66-14.67Z"/></g></g></g></svg>